<?xml version="1.0" encoding="UTF-8"?>
<svg version="1.1" xmlns="http://www.w3.org/2000/svg" width="181" height="164">
<path d="M0 0 C4.15402692 2.3068965 6.36453899 4.90591832 7.8125 9.4375 C8.64458568 13.43005145 8.62078054 16.82377433 6.76855469 20.52172852 C2.62708967 26.71455328 -2.22243832 31.8260168 -7.5625 37 C-8.39394531 37.81791016 -9.22539062 38.63582031 -10.08203125 39.47851562 C-12.11043725 41.47194911 -14.14553925 43.45796985 -16.1875 45.4375 C-14.96280762 48.01988303 -13.75345536 50.00795867 -12 52.3125 C-10.1875 55.4375 -10.1875 55.4375 -10.25 58.625 C-11.7075 62.9975 -11.7075 62.9975 -14.1875 64.4375 C-20.78001412 65.42637712 -20.78001412 65.42637712 -24.13378906 63.07006836 C-24.73416992 62.51971924 -25.33455078 61.96937012 -25.953125 61.40234375 C-26.87013184 60.57464478 -26.87013184 60.57464478 -27.80566406 59.73022461 C-28.26166992 59.30362549 -28.71767578 58.87702637 -29.1875 58.4375 C-29.92798584 59.19893311 -30.66847168 59.96036621 -31.43139648 60.74487305 C-34.21092061 63.5974114 -37.00416612 66.43618749 -39.80151367 69.27124023 C-41.00477747 70.49448056 -42.20441053 71.72130436 -43.40014648 72.9519043 C-59.33173983 89.33583516 -59.33173983 89.33583516 -68.49609375 89.9609375 C-69.87308681 89.93757664 -71.24989317 89.88824188 -72.625 89.8125 C-73.33076172 89.79832031 -74.03652344 89.78414063 -74.76367188 89.76953125 C-79.81278495 89.62485752 -79.81278495 89.62485752 -82.1875 88.4375 C-83.31600634 85.05198099 -83.42672932 82.31712542 -83.5 78.75 C-83.53738281 77.57050781 -83.57476562 76.39101562 -83.61328125 75.17578125 C-82.71985464 67.33165957 -78.42227635 62.08127878 -72.890625 56.75 C-72.29699158 56.16202637 -71.70335815 55.57405273 -71.09173584 54.96826172 C-69.21626678 53.11496454 -67.3273054 51.27616438 -65.4375 49.4375 C-64.15402463 48.17411437 -62.8714633 46.90979944 -61.58984375 45.64453125 C-58.46618518 42.56468493 -55.33035552 39.49774913 -52.1875 36.4375 C-53.36456954 33.87657843 -54.12924898 32.48718469 -56.3125 30.625 C-58.1875 28.4375 -58.1875 28.4375 -58.6875 24.9375 C-58.1875 21.4375 -58.1875 21.4375 -56.625 19 C-53.12443832 16.75605021 -51.29225544 16.75337409 -47.1875 17.4375 C-45.07128906 18.81103516 -45.07128906 18.81103516 -42.953125 20.4765625 C-41.89013184 21.30341553 -41.89013184 21.30341553 -40.80566406 22.14697266 C-40.27166992 22.57284668 -39.73767578 22.9987207 -39.1875 23.4375 C-38.5169458 22.75123535 -37.8463916 22.0649707 -37.15551758 21.35791016 C-34.65657218 18.8045075 -32.14758253 16.26117488 -29.63549805 13.72070312 C-28.55136703 12.62152147 -27.46994832 11.51965757 -26.39135742 10.41503906 C-24.83704256 8.82417738 -23.27310425 7.24334027 -21.70703125 5.6640625 C-21.22974075 5.17128815 -20.75245026 4.67851379 -20.26069641 4.17080688 C-14.33566978 -1.75713775 -7.847536 -3.39865407 0 0 Z M-50.47937012 45.45147705 C-51.05336548 46.02952087 -51.62736084 46.6075647 -52.21875 47.203125 C-52.81046997 47.79293152 -53.40218994 48.38273804 -54.01184082 48.99041748 C-55.26507689 50.24229017 -56.51578127 51.49670159 -57.76416016 52.75341797 C-59.67264893 54.67256598 -61.59149563 56.58088263 -63.51171875 58.48828125 C-64.72720394 59.70508876 -65.94206821 60.9225169 -67.15625 62.140625 C-67.73024536 62.7105719 -68.30424072 63.2805188 -68.89562988 63.86773682 C-72.72845025 67.69506824 -72.72845025 67.69506824 -75.1875 72.4375 C-75.02929125 75.60167507 -74.35446498 77.19347426 -72.5625 79.8125 C-70.22380147 81.74223827 -70.22380147 81.74223827 -66.96459961 81.42797852 C-62.03423422 80.13507616 -59.81816366 77.83889923 -56.37890625 74.21484375 C-55.46152931 73.28473228 -55.46152931 73.28473228 -54.52561951 72.33583069 C-52.58581053 70.36257967 -50.66796708 68.36946445 -48.75 66.375 C-47.43434129 65.02923024 -46.11729772 63.68481288 -44.79882812 62.34179688 C-41.57880365 59.05581002 -38.37831132 55.75185112 -35.1875 52.4375 C-36.67828774 49.31139282 -38.21852949 47.13554703 -40.6875 44.6875 C-41.2959375 44.07390625 -41.904375 43.4603125 -42.53125 42.828125 C-46.09994905 39.83176447 -47.69142012 42.696444 -50.47937012 45.45147705 Z " fill="#2d8cff" transform="translate(155.1875,8.5625)"/>
<path d="M0 0 C6.41069287 5.27101414 12.18590512 11.09128152 18 17 C17.52949219 17.96679688 17.05898438 18.93359375 16.57421875 19.9296875 C15.9449341 21.24461064 15.31604954 22.55972531 14.6875 23.875 C14.37876953 24.50664063 14.07003906 25.13828125 13.75195312 25.7890625 C11.18357727 31.19616956 9.77144407 36.09518645 8 42 C-0.25 42 -8.5 42 -17 42 C-15.51004341 25.61047749 -11.0440946 12.34339985 0 0 Z " fill="#2d8cff" transform="translate(33,33)"/>
<path d="M0 0 C0 8.25 0 16.5 0 25 C-7.4375 27.1875 -7.4375 27.1875 -9.72045898 27.84057617 C-15.54347959 29.60954775 -19.40026236 31.88903465 -25 35 C-30.61 29.39 -36.22 23.78 -42 18 C-32.3595993 5.94949913 -15.16836954 0 0 0 Z " fill="#2d8cff" transform="translate(84,7)"/>
<path d="M0 0 C3.90118784 1.50045686 7.62523977 3.3764465 11.38891602 5.18774414 C15.4755964 6.97928778 19.73780107 8.34700791 23.97094727 9.75805664 C23.97094727 17.67805664 23.97094727 25.59805664 23.97094727 33.75805664 C8.01801191 33.75805664 -5.49409733 27.37790613 -18.02905273 17.75805664 C-15.93213704 13.11724777 -12.70076767 10.02477711 -9.15405273 6.44555664 C-8.52885742 5.78749023 -7.90366211 5.12942383 -7.25952148 4.45141602 C-6.64979492 3.83459961 -6.04006836 3.2177832 -5.41186523 2.58227539 C-4.85901855 2.01597412 -4.30617188 1.44967285 -3.73657227 0.86621094 C-2.02905273 -0.24194336 -2.02905273 -0.24194336 0 0 Z " fill="#2d8cff" transform="translate(60.029052734375,120.241943359375)"/>
<path d="M0 0 C8.25 0 16.5 0 25 0 C25.66 1.98 26.32 3.96 27 6 C27.6148001 7.81598516 28.23965369 9.6286008 28.875 11.4375 C29.18179688 12.32308594 29.48859375 13.20867187 29.8046875 14.12109375 C31.25851124 17.62262347 33.06815096 20.73848918 35 24 C32.21641519 26.84137242 29.42184273 29.67168155 26.625 32.5 C25.8309375 33.31082031 25.036875 34.12164062 24.21875 34.95703125 C23.45820312 35.72402344 22.69765625 36.49101563 21.9140625 37.28125 C21.2123291 37.99345703 20.5105957 38.70566406 19.78759766 39.43945312 C18 41 18 41 16 41 C6.64528279 30.13721754 0 14.41910096 0 0 Z " fill="#2d8cff" transform="translate(16,87)"/>
<path d="M0 0 C2.14779901 1.32630359 3.73793028 2.72523299 5.50463867 4.5246582 C6.12338867 5.14985352 6.74213867 5.77504883 7.37963867 6.41918945 C8.01385742 7.07016602 8.64807617 7.72114258 9.30151367 8.3918457 C10.27604492 9.37991211 10.27604492 9.37991211 11.27026367 10.38793945 C12.86863095 12.00981213 14.46213265 13.6361738 16.05151367 15.2668457 C14.07557853 21.19465112 6.56961914 23.94783808 1.26245117 26.7277832 C-7.43643759 30.86414241 -15.27559009 33.2668457 -24.94848633 33.2668457 C-24.94848633 25.0168457 -24.94848633 16.7668457 -24.94848633 8.2668457 C-21.31848633 7.2768457 -17.68848633 6.2868457 -13.94848633 5.2668457 C-10.71410264 3.74373857 -7.67913473 2.05039852 -4.57739258 0.27856445 C-1.94848633 -0.7331543 -1.94848633 -0.7331543 0 0 Z " fill="#2d8cff" transform="translate(120.948486328125,120.733154296875)"/>
<path d="M0 0 C8.25 0 16.5 0 25 0 C25 14.99620285 18.67649009 29.57396595 9 41 C5.95667235 39.6415798 3.87690849 38.11536976 1.546875 35.7421875 C0.928125 35.11699219 0.309375 34.49179688 -0.328125 33.84765625 C-0.96234375 33.19667969 -1.5965625 32.54570313 -2.25 31.875 C-2.8996875 31.21628906 -3.549375 30.55757812 -4.21875 29.87890625 C-5.81711727 28.25703357 -7.41061897 26.6306719 -9 25 C-7.28701908 20.59066023 -5.28277363 16.36327737 -3.21875 12.109375 C-1.56000117 8.11274062 -1.56000117 8.11274062 0 0 Z " fill="#2d8cff" transform="translate(138,87)"/>
</svg>
