<?xml version="1.0" encoding="UTF-8"?>
<svg version="1.1" xmlns="http://www.w3.org/2000/svg" width="1070" height="218">
<path d="M0 0 C4.15402692 2.3068965 6.36453899 4.90591832 7.8125 9.4375 C8.64458568 13.43005145 8.62078054 16.82377433 6.76855469 20.52172852 C2.62708967 26.71455328 -2.22243832 31.8260168 -7.5625 37 C-8.39394531 37.81791016 -9.22539062 38.63582031 -10.08203125 39.47851562 C-12.11043725 41.47194911 -14.14553925 43.45796985 -16.1875 45.4375 C-14.96280762 48.01988303 -13.75345536 50.00795867 -12 52.3125 C-10.1875 55.4375 -10.1875 55.4375 -10.25 58.625 C-11.7075 62.9975 -11.7075 62.9975 -14.1875 64.4375 C-20.78001412 65.42637712 -20.78001412 65.42637712 -24.13378906 63.07006836 C-24.73416992 62.51971924 -25.33455078 61.96937012 -25.953125 61.40234375 C-26.87013184 60.57464478 -26.87013184 60.57464478 -27.80566406 59.73022461 C-28.26166992 59.30362549 -28.71767578 58.87702637 -29.1875 58.4375 C-29.92798584 59.19893311 -30.66847168 59.96036621 -31.43139648 60.74487305 C-34.21092061 63.5974114 -37.00416612 66.43618749 -39.80151367 69.27124023 C-41.00477747 70.49448056 -42.20441053 71.72130436 -43.40014648 72.9519043 C-59.33173983 89.33583516 -59.33173983 89.33583516 -68.49609375 89.9609375 C-69.87308681 89.93757664 -71.24989317 89.88824188 -72.625 89.8125 C-73.33076172 89.79832031 -74.03652344 89.78414063 -74.76367188 89.76953125 C-79.81278495 89.62485752 -79.81278495 89.62485752 -82.1875 88.4375 C-83.31600634 85.05198099 -83.42672932 82.31712542 -83.5 78.75 C-83.53738281 77.57050781 -83.57476562 76.39101562 -83.61328125 75.17578125 C-82.71985464 67.33165957 -78.42227635 62.08127878 -72.890625 56.75 C-72.29699158 56.16202637 -71.70335815 55.57405273 -71.09173584 54.96826172 C-69.21626678 53.11496454 -67.3273054 51.27616438 -65.4375 49.4375 C-64.15402463 48.17411437 -62.8714633 46.90979944 -61.58984375 45.64453125 C-58.46618518 42.56468493 -55.33035552 39.49774913 -52.1875 36.4375 C-53.36456954 33.87657843 -54.12924898 32.48718469 -56.3125 30.625 C-58.1875 28.4375 -58.1875 28.4375 -58.6875 24.9375 C-58.1875 21.4375 -58.1875 21.4375 -56.625 19 C-53.12443832 16.75605021 -51.29225544 16.75337409 -47.1875 17.4375 C-45.07128906 18.81103516 -45.07128906 18.81103516 -42.953125 20.4765625 C-41.89013184 21.30341553 -41.89013184 21.30341553 -40.80566406 22.14697266 C-40.27166992 22.57284668 -39.73767578 22.9987207 -39.1875 23.4375 C-38.5169458 22.75123535 -37.8463916 22.0649707 -37.15551758 21.35791016 C-34.65657218 18.8045075 -32.14758253 16.26117488 -29.63549805 13.72070312 C-28.55136703 12.62152147 -27.46994832 11.51965757 -26.39135742 10.41503906 C-24.83704256 8.82417738 -23.27310425 7.24334027 -21.70703125 5.6640625 C-21.22974075 5.17128815 -20.75245026 4.67851379 -20.26069641 4.17080688 C-14.33566978 -1.75713775 -7.847536 -3.39865407 0 0 Z M-50.47937012 45.45147705 C-51.05336548 46.02952087 -51.62736084 46.6075647 -52.21875 47.203125 C-52.81046997 47.79293152 -53.40218994 48.38273804 -54.01184082 48.99041748 C-55.26507689 50.24229017 -56.51578127 51.49670159 -57.76416016 52.75341797 C-59.67264893 54.67256598 -61.59149563 56.58088263 -63.51171875 58.48828125 C-64.72720394 59.70508876 -65.94206821 60.9225169 -67.15625 62.140625 C-67.73024536 62.7105719 -68.30424072 63.2805188 -68.89562988 63.86773682 C-72.72845025 67.69506824 -72.72845025 67.69506824 -75.1875 72.4375 C-75.02929125 75.60167507 -74.35446498 77.19347426 -72.5625 79.8125 C-70.22380147 81.74223827 -70.22380147 81.74223827 -66.96459961 81.42797852 C-62.03423422 80.13507616 -59.81816366 77.83889923 -56.37890625 74.21484375 C-55.46152931 73.28473228 -55.46152931 73.28473228 -54.52561951 72.33583069 C-52.58581053 70.36257967 -50.66796708 68.36946445 -48.75 66.375 C-47.43434129 65.02923024 -46.11729772 63.68481288 -44.79882812 62.34179688 C-41.57880365 59.05581002 -38.37831132 55.75185112 -35.1875 52.4375 C-36.67828774 49.31139282 -38.21852949 47.13554703 -40.6875 44.6875 C-41.2959375 44.07390625 -41.904375 43.4603125 -42.53125 42.828125 C-46.09994905 39.83176447 -47.69142012 42.696444 -50.47937012 45.45147705 Z " fill="#2AB7B3" transform="translate(162.1875,40.5625)"/>
<path d="M0 0 C5.10454178 -0.0746894 10.20875875 -0.12885461 15.3137207 -0.16479492 C17.04685006 -0.17979269 18.77994204 -0.20019772 20.51293945 -0.22631836 C23.01783525 -0.26310203 25.5222252 -0.27981651 28.02734375 -0.29296875 C28.79022202 -0.30845261 29.55310028 -0.32393646 30.33909607 -0.33988953 C39.56608539 -0.34271456 46.4156633 2.45947728 53.05078125 8.83984375 C58.91472045 15.33835753 60.25738337 22.3384899 60 31 C58.96664768 38.54891066 55.74398505 44.02725142 50 49 C40.89265884 55.23231493 30.66837247 55.29680171 20 55 C20.01160156 56.2065625 20.02320313 57.413125 20.03515625 58.65625 C20.04454335 60.27083177 20.05364256 61.88541524 20.0625 63.5 C20.07087891 64.29148437 20.07925781 65.08296875 20.08789062 65.8984375 C20.10891185 71.02761717 19.73937287 75.92336106 19 81 C16.02077407 81.02683987 13.04178705 81.04676037 10.0625 81.0625 C9.21236328 81.07087891 8.36222656 81.07925781 7.48632812 81.08789062 C6.67744141 81.09111328 5.86855469 81.09433594 5.03515625 81.09765625 C4.2862915 81.10289307 3.53742676 81.10812988 2.76586914 81.11352539 C1 81 1 81 0 80 C-0.09502416 77.50507612 -0.12557566 75.03793986 -0.11352539 72.54272461 C-0.11367142 71.76229294 -0.11381744 70.98186127 -0.1139679 70.17778015 C-0.11326858 67.5859402 -0.10547536 64.99417122 -0.09765625 62.40234375 C-0.09579213 60.6101536 -0.0943682 58.81796294 -0.09336853 57.02577209 C-0.08954284 52.29929203 -0.07971212 47.57284248 -0.06866455 42.84637451 C-0.05845153 38.0271445 -0.05387115 33.20790958 -0.04882812 28.38867188 C-0.03808989 18.92576781 -0.02101286 9.46288644 0 0 Z M20 17 C19.07811539 19.76565382 18.88214778 21.38283702 18.90234375 24.23046875 C18.90556641 25.03291016 18.90878906 25.83535156 18.91210938 26.66210938 C18.92048828 27.49548828 18.92886719 28.32886719 18.9375 29.1875 C18.94201172 30.03248047 18.94652344 30.87746094 18.95117188 31.74804688 C18.96294597 33.83206155 18.9808811 35.91603977 19 38 C21.56428515 38.13559675 24.12135216 38.23433188 26.6875 38.3125 C27.40873047 38.35439453 28.12996094 38.39628906 28.87304688 38.43945312 C33.03636202 38.53450598 34.54738745 38.35276276 37.95703125 35.6953125 C40.52505394 32.30729022 41 30.23924172 41 26 C39.48483372 21.98480937 38.5944747 20.39631647 35 18 C30.01259135 16.81252175 25.09195022 16.898161 20 17 Z " fill="#2AB7B3" transform="translate(225,73)"/>
<path d="M0 0 C43.61104061 0 43.61104061 0 52.53125 8.2890625 C58.21040664 14.90467581 59.38289194 22.37120136 59.26953125 30.83203125 C58.69144083 37.62668824 56.4159796 43.04204252 51.5625 47.875 C41.87898274 55.43243137 30.66320837 55.43600779 19 55 C19 63.58 19 72.16 19 81 C12.73 81 6.46 81 0 81 C0 54.27 0 27.54 0 0 Z M19 18 C19 24.6 19 31.2 19 38 C21.371875 38.0825 23.74375 38.165 26.1875 38.25 C27.29387817 38.30462402 27.29387817 38.30462402 28.42260742 38.36035156 C32.02641563 38.42069892 33.87966133 38.07776224 36.92578125 36.109375 C39.79840132 33.18806645 39.96789529 32.39167741 40.3125 28.1875 C40.28232024 24.86772673 40.0060988 24.00955479 38.125 21.0625 C34.42523426 17.4715509 31.26773519 17.87926542 26.375 17.9375 C23.94125 17.958125 21.5075 17.97875 19 18 Z " fill="#2AB7B3" transform="translate(630,73)"/>
<path d="M0 0 C1.2684375 0.99 1.2684375 0.99 2.5625 2 C2.8925 1.01 3.2225 0.02 3.5625 -1 C9.8325 -1 16.1025 -1 22.5625 -1 C22.5625 18.8 22.5625 38.6 22.5625 59 C16.2925 59 10.0225 59 3.5625 59 C3.5625 57.68 3.5625 56.36 3.5625 55 C2.655 55.639375 1.7475 56.27875 0.8125 56.9375 C-4.96341556 60.60298488 -10.72162776 60.62431747 -17.4375 60 C-25.3154708 58.07967232 -32.17861657 53.83982986 -36.75 47.05078125 C-41.53794285 38.09099113 -42.88168873 28.63230262 -40.1875 18.8125 C-37.15966716 9.77086093 -31.30271912 4.07799577 -23.375 -0.9375 C-16.49950261 -3.4780995 -6.42029931 -3.68937445 0 0 Z M-20.75 19.1875 C-23.38706277 23.58260462 -23.87804805 27.42448833 -23.03125 32.375 C-21.91297459 36.42209195 -20.86653132 38.6009011 -17.75 41.5 C-12.5655197 43.84768919 -8.64747896 44.76499272 -3.1875 42.875 C0.76062114 40.18309922 3.0487553 37.54123411 4.5625 33 C5.12747328 27.29594285 4.82634401 22.89576602 1.5625 18 C-1.68456405 15.05734821 -4.35102651 14.081998 -8.75 13.75 C-13.95495094 14.10287803 -16.97924615 15.62057068 -20.75 19.1875 Z " fill="#2AB7B3" transform="translate(333.4375,95)"/>
<path d="M0 0 C6.99237662 6.79967333 9.96708572 15.57227481 10.125 25.1875 C10 29 10 29 9 32 C-4.53 32 -18.06 32 -32 32 C-28.56638918 36.75557437 -28.56638918 36.75557437 -24 39 C-20.95985717 39.31703001 -20.95985717 39.31703001 -17.6875 39.25 C-16.52992188 39.24613281 -15.37234375 39.24226563 -14.1796875 39.23828125 C-11.35280903 39.02643901 -9.79600578 38.64360448 -7.3125 37.4375 C-4 37 -4 37 -1.359375 38.87109375 C1.20023537 41.16258851 3.63159887 43.512464 6 46 C4.69769057 49.9069283 3.26883731 50.23708974 -0.3125 52.125 C-1.76076172 52.90230469 -1.76076172 52.90230469 -3.23828125 53.6953125 C-10.84868909 57.29061125 -20.83975476 57.1789072 -28.9921875 55.31640625 C-38.44176333 51.76913557 -45.34065088 45.9815085 -50 37 C-53.37231052 28.53679763 -52.73729988 20.0544077 -49.375 11.70703125 C-44.70300967 2.50905029 -37.47044154 -2.34245016 -28 -6 C-17.88579385 -8.62162705 -8.4960027 -5.73852814 0 0 Z M-30 14 C-30.66 15.32 -31.32 16.64 -32 18 C-24.08 18 -16.16 18 -8 18 C-10.07875879 13.84248241 -11.07245777 12.33981239 -15 10 C-21.06008451 8.88190323 -25.2915594 9.86575948 -30 14 Z " fill="#2AB7B3" transform="translate(920,99)"/>
<path d="M0 0 C7.19050411 5.36808324 10.86423551 11.88850539 12.4921875 20.6484375 C13.09669523 25.55821977 12.83899824 28.96601056 12 34 C-1.53 34 -15.06 34 -29 34 C-27.62362896 39.08070799 -27.62362896 39.08070799 -24.27734375 40.296875 C-16.52317782 41.96046245 -8.45197527 41.77282801 -1 39 C1.97 41.97 4.94 44.94 8 48 C5.95897374 52.08205252 5.45482603 52.68037 1.6875 54.6875 C0.92824219 55.10386719 0.16898438 55.52023438 -0.61328125 55.94921875 C-8.47188317 59.4090615 -19.74980669 59.30415858 -27.9375 56.875 C-36.18179257 53.56796739 -42.38603243 47.57444325 -46.75 39.9375 C-50.1932588 31.84584182 -50.18848856 22.31043331 -47.03125 14.125 C-42.99563702 5.80919144 -36.89794396 0.36262667 -28.328125 -3.0703125 C-18.4227221 -6.17624392 -9.07074335 -5.11340924 0 0 Z M-29 18 C-29 18.66 -29 19.32 -29 20 C-21.08 20 -13.16 20 -5 20 C-8.05826852 14.66816169 -8.05826852 14.66816169 -13 12 C-19.65563596 11.01447987 -24.62394148 12.702666 -29 18 Z " fill="#2AB7B3" transform="translate(985,97)"/>
<path d="M0 0 C6.96874045 7.35589269 10.23612426 15.71782677 10.4375 25.75 C10.25 29.375 10.25 29.375 9.25 32.375 C-4.28 32.375 -17.81 32.375 -31.75 32.375 C-28.31638918 37.13057437 -28.31638918 37.13057437 -23.75 39.375 C-16.8530347 39.98806358 -10.26158768 39.79791634 -3.75 37.375 C-3.19570313 37.94089844 -2.64140625 38.50679687 -2.0703125 39.08984375 C-1.34585938 39.82332031 -0.62140625 40.55679688 0.125 41.3125 C0.84429687 42.04339844 1.56359375 42.77429688 2.3046875 43.52734375 C4.12027192 45.43167999 4.12027192 45.43167999 6.25 46.375 C6.25 47.035 6.25 47.695 6.25 48.375 C4.30859375 49.8125 4.30859375 49.8125 1.6875 51.375 C0.84058594 51.890625 -0.00632812 52.40625 -0.87890625 52.9375 C-9.61007796 57.30902543 -19.73881671 57.9867442 -29.14453125 55.46484375 C-38.4906224 51.80869992 -45.44479447 46.59083059 -49.75 37.375 C-52.71378402 28.42190244 -52.3698573 20.07631735 -48.75 11.375 C-44.02571826 3.05967544 -36.68763445 -2.48027677 -27.75 -5.625 C-17.92737648 -8.18742353 -8.49740113 -5.02119158 0 0 Z M-29.75 14.375 C-30.41 15.695 -31.07 17.015 -31.75 18.375 C-23.83 18.375 -15.91 18.375 -7.75 18.375 C-9.24576562 13.54257912 -9.24576562 13.54257912 -11.8125 11.5625 C-18.52644346 8.84835265 -24.23048144 9.52859346 -29.75 14.375 Z " fill="#2AB7B3" transform="translate(446.75,98.625)"/>
<path d="M0 0 C6.24228014 4.70259728 9.56554741 10.69664222 12 18 C12.09582087 20.55334435 12.13939278 23.07268016 12.125 25.625 C12.13080078 26.66527344 12.13080078 26.66527344 12.13671875 27.7265625 C12.12666646 32.87333354 12.12666646 32.87333354 11 34 C8.04294679 34.08868299 5.10934944 34.11520296 2.15234375 34.09765625 C0.82270348 34.09553383 0.82270348 34.09553383 -0.53379822 34.09336853 C-3.37673254 34.08775215 -6.21958931 34.07519691 -9.0625 34.0625 C-10.98502491 34.05748711 -12.90755104 34.05292384 -14.83007812 34.04882812 C-19.55341549 34.03777741 -24.27669458 34.02050183 -29 34 C-28.19289381 36.4775185 -28.19289381 36.4775185 -27 39 C-20.10773296 42.28297368 -10.96642641 42.07969326 -3.6875 40 C-2.800625 39.67 -1.91375 39.34 -1 39 C1.97 41.97 4.94 44.94 8 48 C5.84847154 52.30305693 5.23946612 52.75235792 1.125 54.6875 C-0.17050781 55.31205078 -0.17050781 55.31205078 -1.4921875 55.94921875 C-9.9331495 59.48600812 -21.51504311 59.47054179 -30.015625 56.03515625 C-38.26280965 51.73298315 -44.51328849 45.4435858 -47.875 36.6875 C-50.53372815 27.49273182 -49.50799602 18.47118963 -44.96875 10.09765625 C-39.71694648 1.98929743 -32.39473187 -1.84699721 -23.23828125 -4.37109375 C-15.0250567 -5.9661832 -7.26808039 -4.03103618 0 0 Z M-29 18 C-29 18.66 -29 19.32 -29 20 C-21.08 20 -13.16 20 -5 20 C-8.04656931 14.64553684 -8.04656931 14.64553684 -13 12 C-19.98004596 10.68796129 -24.52634141 12.44748484 -29 18 Z " fill="#2AB7B3" transform="translate(607,97)"/>
<path d="M0 0 C5.94 0 11.88 0 18 0 C18.66 2.31 19.32 4.62 20 7 C20.54269531 6.57847656 21.08539062 6.15695313 21.64453125 5.72265625 C22.35996094 5.17480469 23.07539062 4.62695312 23.8125 4.0625 C24.52019531 3.51722656 25.22789062 2.97195312 25.95703125 2.41015625 C31.01567044 -1.08156219 37.10852743 -0.53083065 43 0 C48.90138964 1.68748887 52.52806357 4.94089263 56 10 C59.7813976 17.42774528 60.15208457 24.62355688 60.09765625 32.77734375 C60.0962413 33.58869278 60.09482635 34.40004181 60.09336853 35.23597717 C60.08781357 37.80319047 60.07526967 40.37031348 60.0625 42.9375 C60.05747917 44.68814977 60.05291729 46.43880093 60.04882812 48.18945312 C60.03871386 52.45969739 60.01913005 56.72974876 60 61 C53.73 61 47.46 61 41 61 C40.93941406 58.39867187 40.87882813 55.79734375 40.81640625 53.1171875 C40.75451831 50.58525979 40.69117156 48.05337246 40.62768555 45.52148438 C40.58449402 43.76794054 40.54280845 42.01435892 40.50268555 40.26074219 C40.44459876 37.73360835 40.38101701 35.20666196 40.31640625 32.6796875 C40.29969376 31.90132538 40.28298126 31.12296326 40.26576233 30.3210144 C40.1527014 26.12448711 39.80794586 22.13461263 39 18 C34.52573668 16.50857889 30.68085977 16.25729452 26.3125 18.1875 C22.30055373 21.33199843 20.19815042 23.5925935 19.4699707 28.76464844 C19.43571922 30.21256046 19.42202909 31.66106277 19.42578125 33.109375 C19.40453438 34.26049774 19.40453438 34.26049774 19.38285828 35.43487549 C19.34108835 37.87339495 19.32573618 40.31117368 19.3125 42.75 C19.28346609 45.20276592 19.24899266 47.6553439 19.21000671 50.10797119 C19.18747269 51.63144413 19.17168171 53.15503414 19.16316223 54.6786499 C19.10960323 59.89039677 19.10960323 59.89039677 18 61 C12.06 61 6.12 61 0 61 C0 40.87 0 20.74 0 0 Z " fill="#2AB7B3" transform="translate(800,93)"/>
<path d="M0 0 C5.6893313 5.19168293 8.83573499 11.97856769 9.4609375 19.5703125 C9.68513768 27.9691962 8.95605318 34.10412147 4.1875 41.25 C3.630625 42.1575 3.07375 43.065 2.5 44 C-4.19634758 50.51536521 -12.70426543 54.50975081 -22.0625 54.625 C-31.31415749 54.4462748 -38.68071611 51.35139215 -45.76171875 45.40234375 C-52.49280976 38.33790348 -54.61592442 30.47625242 -54.38745117 20.98291016 C-53.85167211 12.09048093 -50.35262381 5.2513493 -43.8125 -0.75 C-29.54891122 -11.31458344 -14.00448663 -10.85877041 0 0 Z M-34.1875 14.875 C-36.38785013 19.44495797 -36.62339533 23.26299372 -35.8125 28.25 C-33.82558515 32.15286846 -31.69297771 35.14345495 -27.8125 37.25 C-22.18817987 38.73566947 -18.86008812 38.10712535 -13.8125 35.25 C-9.31692254 30.39950852 -8.4513129 27.2543165 -8.53515625 20.7890625 C-9.09432541 15.66990825 -11.83901492 13.07205406 -15.625 9.875 C-23.41776638 5.90221714 -28.68562003 8.79397477 -34.1875 14.875 Z " fill="#2AB7B3" transform="translate(780.8125,100.75)"/>
<path d="M0 0 C0.79792969 0.00386719 1.59585938 0.00773437 2.41796875 0.01171875 C3.61486328 0.00591797 3.61486328 0.00591797 4.8359375 0 C10.79136108 0.01011108 10.79136108 0.01011108 11.91796875 1.13671875 C11.99055821 3.32311328 12.00170658 5.51172264 11.98046875 7.69921875 C11.97144531 8.89675781 11.96242188 10.09429687 11.953125 11.328125 C11.94152344 12.25496094 11.92992187 13.18179688 11.91796875 14.13671875 C12.77261719 14.12511719 13.62726562 14.11351563 14.5078125 14.1015625 C15.61253906 14.09253906 16.71726562 14.08351563 17.85546875 14.07421875 C18.95761719 14.06261719 20.05976562 14.05101563 21.1953125 14.0390625 C23.91796875 14.13671875 23.91796875 14.13671875 24.91796875 15.13671875 C25.01706177 17.4683193 25.04767379 19.80301817 25.04296875 22.13671875 C25.04683594 24.05484375 25.04683594 24.05484375 25.05078125 26.01171875 C24.91796875 29.13671875 24.91796875 29.13671875 23.91796875 30.13671875 C19.95796875 30.13671875 15.99796875 30.13671875 11.91796875 30.13671875 C12.24796875 39.37671875 12.57796875 48.61671875 12.91796875 58.13671875 C16.54796875 58.13671875 20.17796875 58.13671875 23.91796875 58.13671875 C24.91796875 59.13671875 24.91796875 59.13671875 25.015625 62.515625 C25.00895244 63.91018952 24.99699407 65.30473618 24.98046875 66.69921875 C24.97595703 67.41013672 24.97144531 68.12105469 24.96679688 68.85351562 C24.95497739 70.61461888 24.93704138 72.37567911 24.91796875 74.13671875 C16.76871717 76.29444021 8.73409667 77.66729906 0.7109375 74.3203125 C-3.07604218 71.82041088 -5.24105293 67.70028609 -6.6328125 63.45776367 C-7.24993865 60.26916677 -7.19299477 57.21181701 -7.1796875 53.96484375 C-7.17827255 53.28242615 -7.1768576 52.60000854 -7.17539978 51.89691162 C-7.16982209 49.72680191 -7.15727379 47.55679705 -7.14453125 45.38671875 C-7.13951336 43.91145983 -7.13495096 42.43619928 -7.13085938 40.9609375 C-7.11986 37.35283077 -7.10261078 33.744785 -7.08203125 30.13671875 C-9.72203125 30.13671875 -12.36203125 30.13671875 -15.08203125 30.13671875 C-15.08203125 24.85671875 -15.08203125 19.57671875 -15.08203125 14.13671875 C-12.44203125 14.13671875 -9.80203125 14.13671875 -7.08203125 14.13671875 C-7.09363281 13.20988281 -7.10523438 12.28304687 -7.1171875 11.328125 C-7.12621094 10.13058594 -7.13523437 8.93304688 -7.14453125 7.69921875 C-7.15613281 6.50425781 -7.16773438 5.30929688 -7.1796875 4.078125 C-7.00587998 -1.15695748 -4.65924645 0.00791044 0 0 Z " fill="#2AB7B3" transform="translate(526.08203125,78.86328125)"/>
<path d="M0 0 C0.79792969 0.00386719 1.59585937 0.00773437 2.41796875 0.01171875 C3.61486328 0.00591797 3.61486328 0.00591797 4.8359375 0 C10.79136108 0.01011108 10.79136108 0.01011108 11.91796875 1.13671875 C11.99055821 3.32311328 12.00170658 5.51172264 11.98046875 7.69921875 C11.97144531 8.89675781 11.96242188 10.09429687 11.953125 11.328125 C11.94152344 12.25496094 11.92992187 13.18179688 11.91796875 14.13671875 C12.77261719 14.12511719 13.62726563 14.11351563 14.5078125 14.1015625 C15.61253906 14.09253906 16.71726562 14.08351563 17.85546875 14.07421875 C18.95761719 14.06261719 20.05976563 14.05101563 21.1953125 14.0390625 C23.91796875 14.13671875 23.91796875 14.13671875 24.91796875 15.13671875 C24.99110442 17.66721277 25.01044402 20.16976712 24.98046875 22.69921875 C24.97595703 23.41013672 24.97144531 24.12105469 24.96679688 24.85351562 C24.95497739 26.61461888 24.93704138 28.37567911 24.91796875 30.13671875 C20.62796875 30.13671875 16.33796875 30.13671875 11.91796875 30.13671875 C12.41296875 44.49171875 12.41296875 44.49171875 12.91796875 59.13671875 C18.85796875 58.64171875 18.85796875 58.64171875 24.91796875 58.13671875 C24.91796875 63.41671875 24.91796875 68.69671875 24.91796875 74.13671875 C16.52882781 76.23400398 9.2441758 77.43578192 0.91796875 74.13671875 C-4.09953416 70.37359157 -5.83317788 66.10599477 -7.08203125 60.13671875 C-7.43205211 54.94187948 -7.3672373 49.77476135 -7.26953125 44.57421875 C-7.25445236 43.16993628 -7.24076964 41.76563809 -7.22851562 40.36132812 C-7.19337531 36.9527176 -7.14417248 33.54492605 -7.08203125 30.13671875 C-9.72203125 30.13671875 -12.36203125 30.13671875 -15.08203125 30.13671875 C-15.08203125 24.85671875 -15.08203125 19.57671875 -15.08203125 14.13671875 C-12.44203125 14.13671875 -9.80203125 14.13671875 -7.08203125 14.13671875 C-7.09363281 13.20988281 -7.10523438 12.28304687 -7.1171875 11.328125 C-7.12621094 10.13058594 -7.13523437 8.93304688 -7.14453125 7.69921875 C-7.15613281 6.50425781 -7.16773438 5.30929688 -7.1796875 4.078125 C-7.00587998 -1.15695748 -4.65924645 0.00791044 0 0 Z " fill="#2AB7B3" transform="translate(479.08203125,78.86328125)"/>
<path d="M0 0 C5.94 0 11.88 0 18 0 C19.58272601 1.58272601 19.34735747 3.38034003 19.5625 5.5625 C19.68818359 6.80193359 19.68818359 6.80193359 19.81640625 8.06640625 C19.87699219 8.70449219 19.93757813 9.34257813 20 10 C20.35191406 9.52949219 20.70382812 9.05898437 21.06640625 8.57421875 C24.58450816 4.13755237 27.3933052 1.58856353 33 0 C36.37847033 -0.2176467 39.60712302 -0.1394333 43 0 C43 5.94 43 11.88 43 18 C39.77734375 18.42317708 36.5546875 18.84635417 33.33203125 19.26953125 C28.37225138 20.35684524 25.79084286 21.94554286 22.75 26 C20.18532845 30.39657981 19.83713527 33.61371764 19.68359375 38.63671875 C19.64169922 39.93544922 19.59980469 41.23417969 19.55664062 42.57226562 C19.51683013 43.94400761 19.47711784 45.31575244 19.4375 46.6875 C19.39429165 48.07097645 19.35067661 49.45444027 19.30664062 50.83789062 C19.20042035 54.22513714 19.09969312 57.61255509 19 61 C12.73 61 6.46 61 0 61 C0 40.87 0 20.74 0 0 Z " fill="#2AB7B3" transform="translate(1007,93)"/>
<path d="M0 0 C6.27 0 12.54 0 19 0 C19 27.06 19 54.12 19 82 C12.73 82 6.46 82 0 82 C0 54.94 0 27.88 0 0 Z " fill="#2AB7B3" transform="translate(367,72)"/>
<path d="M0 0 C5.94 0 11.88 0 18 0 C18 20.13 18 40.26 18 61 C12.06 61 6.12 61 0 61 C0 40.87 0 20.74 0 0 Z " fill="#2AB7B3" transform="translate(699,93)"/>
<path d="M0 0 C6.41069287 5.27101414 12.18590512 11.09128152 18 17 C17.52949219 17.96679688 17.05898438 18.93359375 16.57421875 19.9296875 C15.9449341 21.24461064 15.31604954 22.55972531 14.6875 23.875 C14.37876953 24.50664063 14.07003906 25.13828125 13.75195312 25.7890625 C11.18357727 31.19616956 9.77144407 36.09518645 8 42 C-0.25 42 -8.5 42 -17 42 C-15.51004341 25.61047749 -11.0440946 12.34339985 0 0 Z " fill="#2AB7B3" transform="translate(40,65)"/>
<path d="M0 0 C0 8.25 0 16.5 0 25 C-7.4375 27.1875 -7.4375 27.1875 -9.72045898 27.84057617 C-15.54347959 29.60954775 -19.40026236 31.88903465 -25 35 C-30.61 29.39 -36.22 23.78 -42 18 C-32.3595993 5.94949913 -15.16836954 0 0 0 Z " fill="#2AB7B3" transform="translate(91,39)"/>
<path d="M0 0 C3.90118784 1.50045686 7.62523977 3.3764465 11.38891602 5.18774414 C15.4755964 6.97928778 19.73780107 8.34700791 23.97094727 9.75805664 C23.97094727 17.67805664 23.97094727 25.59805664 23.97094727 33.75805664 C8.01801191 33.75805664 -5.49409733 27.37790613 -18.02905273 17.75805664 C-15.93213704 13.11724777 -12.70076767 10.02477711 -9.15405273 6.44555664 C-8.52885742 5.78749023 -7.90366211 5.12942383 -7.25952148 4.45141602 C-6.64979492 3.83459961 -6.04006836 3.2177832 -5.41186523 2.58227539 C-4.85901855 2.01597412 -4.30617188 1.44967285 -3.73657227 0.86621094 C-2.02905273 -0.24194336 -2.02905273 -0.24194336 0 0 Z " fill="#2AB7B3" transform="translate(67.029052734375,152.241943359375)"/>
<path d="M0 0 C8.25 0 16.5 0 25 0 C25.66 1.98 26.32 3.96 27 6 C27.6148001 7.81598516 28.23965369 9.6286008 28.875 11.4375 C29.18179688 12.32308594 29.48859375 13.20867187 29.8046875 14.12109375 C31.25851124 17.62262347 33.06815096 20.73848918 35 24 C32.21641519 26.84137242 29.42184273 29.67168155 26.625 32.5 C25.8309375 33.31082031 25.036875 34.12164062 24.21875 34.95703125 C23.45820312 35.72402344 22.69765625 36.49101562 21.9140625 37.28125 C21.2123291 37.99345703 20.5105957 38.70566406 19.78759766 39.43945312 C18 41 18 41 16 41 C6.64528279 30.13721754 0 14.41910096 0 0 Z " fill="#2AB7B3" transform="translate(23,119)"/>
<path d="M0 0 C2.14779901 1.32630359 3.73793028 2.72523299 5.50463867 4.5246582 C6.12338867 5.14985352 6.74213867 5.77504883 7.37963867 6.41918945 C8.01385742 7.07016602 8.64807617 7.72114258 9.30151367 8.3918457 C10.27604492 9.37991211 10.27604492 9.37991211 11.27026367 10.38793945 C12.86863095 12.00981213 14.46213265 13.6361738 16.05151367 15.2668457 C14.07557853 21.19465112 6.56961914 23.94783808 1.26245117 26.7277832 C-7.43643759 30.86414241 -15.27559009 33.2668457 -24.94848633 33.2668457 C-24.94848633 25.0168457 -24.94848633 16.7668457 -24.94848633 8.2668457 C-21.31848633 7.2768457 -17.68848633 6.2868457 -13.94848633 5.2668457 C-10.71410264 3.74373857 -7.67913473 2.05039852 -4.57739258 0.27856445 C-1.94848633 -0.7331543 -1.94848633 -0.7331543 0 0 Z " fill="#2AB7B3" transform="translate(127.948486328125,152.733154296875)"/>
<path d="M0 0 C8.25 0 16.5 0 25 0 C25 14.99620285 18.67649009 29.57396595 9 41 C5.95667235 39.6415798 3.87690849 38.11536976 1.546875 35.7421875 C0.928125 35.11699219 0.309375 34.49179688 -0.328125 33.84765625 C-0.96234375 33.19667969 -1.5965625 32.54570312 -2.25 31.875 C-2.8996875 31.21628906 -3.549375 30.55757812 -4.21875 29.87890625 C-5.81711727 28.25703357 -7.41061897 26.6306719 -9 25 C-7.28701908 20.59066023 -5.28277363 16.36327737 -3.21875 12.109375 C-1.56000117 8.11274062 -1.56000117 8.11274062 0 0 Z " fill="#2AB7B3" transform="translate(145,119)"/>
<path d="M0 0 C5.94 0 11.88 0 18 0 C18 5.28 18 10.56 18 16 C12.06 16 6.12 16 0 16 C0 10.72 0 5.44 0 0 Z " fill="#2AB7B3" transform="translate(699,72)"/>
</svg>
